<mxfile host="65bd71144e">
    <diagram id="-WWRwU9ZvUoe8_PDusX3" name="Page-1">
        <mxGraphModel dx="1444" dy="790" grid="1" gridSize="10" guides="1" tooltips="1" connect="1" arrows="1" fold="1" page="1" pageScale="1" pageWidth="827" pageHeight="1169" math="0" shadow="0">
            <root>
                <mxCell id="0"/>
                <mxCell id="1" parent="0"/>
                <mxCell id="2" value="" style="shape=image;verticalLabelPosition=bottom;labelBackgroundColor=#ffffff;verticalAlign=top;aspect=fixed;imageAspect=0;image=https://cdn.discordapp.com/attachments/920027765816836099/1036585260386893834/IMG_0363.png;" vertex="1" parent="1">
                    <mxGeometry x="14" y="40" width="786.67" height="590" as="geometry"/>
                </mxCell>
            </root>
        </mxGraphModel>
    </diagram>
</mxfile>